<svg height="2862" width="720" xmlns="http://www.w3.org/2000/svg">
<rect height="2862" fill="#555" width="720"></rect>
<text fill="#7f7" font-family="Courier New" font-size="12" xml:space="preserve">
<tspan x="10" y="26">27 megabytes installed</tspan>
<tspan x="10" y="42"></tspan>
<tspan x="10" y="58">node_modules</tspan>
<tspan x="10" y="74">└─┬ torii@0.8.2 </tspan>
<tspan x="10" y="90">  ├─┬ broccoli-funnel@1.1.0 </tspan>
<tspan x="10" y="106">  │ ├── array-equal@1.0.0 </tspan>
<tspan x="10" y="122">  │ ├── blank-object@1.0.2 </tspan>
<tspan x="10" y="138">  │ ├─┬ broccoli-plugin@1.3.0 </tspan>
<tspan x="10" y="154">  │ │ ├── promise-map-series@0.2.3 </tspan>
<tspan x="10" y="170">  │ │ └─┬ quick-temp@0.1.8 </tspan>
<tspan x="10" y="186">  │ │   ├── mktemp@0.4.0 </tspan>
<tspan x="10" y="202">  │ │   └─┬ underscore.string@3.3.4 </tspan>
<tspan x="10" y="218">  │ │     ├── sprintf-js@1.0.3 </tspan>
<tspan x="10" y="234">  │ │     └── util-deprecate@1.0.2 </tspan>
<tspan x="10" y="250">  │ ├─┬ debug@2.6.3 </tspan>
<tspan x="10" y="266">  │ │ └── ms@0.7.2 </tspan>
<tspan x="10" y="282">  │ ├── exists-sync@0.0.4 </tspan>
<tspan x="10" y="298">  │ ├── fast-ordered-set@1.0.3 </tspan>
<tspan x="10" y="314">  │ ├─┬ fs-tree-diff@0.5.6 </tspan>
<tspan x="10" y="330">  │ │ └── object-assign@4.1.1 </tspan>
<tspan x="10" y="346">  │ ├─┬ heimdalljs@0.2.4 </tspan>
<tspan x="10" y="362">  │ │ └── rsvp@3.2.1 </tspan>
<tspan x="10" y="378">  │ ├─┬ minimatch@3.0.3 </tspan>
<tspan x="10" y="394">  │ │ └─┬ brace-expansion@1.1.7 </tspan>
<tspan x="10" y="410">  │ │   ├── balanced-match@0.4.2 </tspan>
<tspan x="10" y="426">  │ │   └── concat-map@0.0.1 </tspan>
<tspan x="10" y="442">  │ ├─┬ mkdirp@0.5.1 </tspan>
<tspan x="10" y="458">  │ │ └── minimist@0.0.8 </tspan>
<tspan x="10" y="474">  │ ├── path-posix@1.0.0 </tspan>
<tspan x="10" y="490">  │ ├─┬ rimraf@2.6.1 </tspan>
<tspan x="10" y="506">  │ │ └─┬ glob@7.1.1 </tspan>
<tspan x="10" y="522">  │ │   ├── fs.realpath@1.0.0 </tspan>
<tspan x="10" y="538">  │ │   ├─┬ inflight@1.0.6 </tspan>
<tspan x="10" y="554">  │ │   │ └── wrappy@1.0.2 </tspan>
<tspan x="10" y="570">  │ │   ├── inherits@2.0.3 </tspan>
<tspan x="10" y="586">  │ │   ├── once@1.4.0 </tspan>
<tspan x="10" y="602">  │ │   └── path-is-absolute@1.0.1 </tspan>
<tspan x="10" y="618">  │ ├── symlink-or-copy@1.1.8 </tspan>
<tspan x="10" y="634">  │ └─┬ walk-sync@0.3.1 </tspan>
<tspan x="10" y="650">  │   ├── ensure-posix-path@1.0.2 </tspan>
<tspan x="10" y="666">  │   └── matcher-collection@1.0.4 </tspan>
<tspan x="10" y="682">  ├─┬ broccoli-merge-trees@1.2.4 </tspan>
<tspan x="10" y="698">  │ ├─┬ can-symlink@1.0.0 </tspan>
<tspan x="10" y="714">  │ │ └─┬ tmp@0.0.28 </tspan>
<tspan x="10" y="730">  │ │   └── os-tmpdir@1.0.2 </tspan>
<tspan x="10" y="746">  │ └── heimdalljs-logger@0.1.9 </tspan>
<tspan x="10" y="762">  ├─┬ broccoli-string-replace@0.1.2 </tspan>
<tspan x="10" y="778">  │ └─┬ broccoli-persistent-filter@1.2.13 </tspan>
<tspan x="10" y="794">  │   ├─┬ async-disk-cache@1.3.1 </tspan>
<tspan x="10" y="810">  │   │ └─┬ istextorbinary@2.1.0 </tspan>
<tspan x="10" y="826">  │   │   ├── binaryextensions@2.0.0 </tspan>
<tspan x="10" y="842">  │   │   ├── editions@1.3.3 </tspan>
<tspan x="10" y="858">  │   │   └── textextensions@2.0.1 </tspan>
<tspan x="10" y="874">  │   ├─┬ hash-for-dep@1.1.2 </tspan>
<tspan x="10" y="890">  │   │ └─┬ broccoli-kitchen-sink-helpers@0.3.1 </tspan>
<tspan x="10" y="906">  │   │   └── glob@5.0.15 </tspan>
<tspan x="10" y="922">  │   ├─┬ md5-hex@1.3.0 </tspan>
<tspan x="10" y="938">  │   │ └── md5-o-matic@0.1.1 </tspan>
<tspan x="10" y="954">  │   └── rsvp@3.5.0 </tspan>
<tspan x="10" y="970">  └─┬ ember-cli-babel@5.2.4 </tspan>
<tspan x="10" y="986">    ├─┬ broccoli-babel-transpiler@5.6.2 </tspan>
<tspan x="10" y="1002">    │ ├─┬ babel-core@5.8.38 </tspan>
<tspan x="10" y="1018">    │ │ ├── babel-plugin-constant-folding@1.0.1 </tspan>
<tspan x="10" y="1034">    │ │ ├── babel-plugin-dead-code-elimination@1.0.2 </tspan>
<tspan x="10" y="1050">    │ │ ├── babel-plugin-eval@1.0.1 </tspan>
<tspan x="10" y="1066">    │ │ ├── babel-plugin-inline-environment-variables@1.0.1 </tspan>
<tspan x="10" y="1082">    │ │ ├── babel-plugin-jscript@1.0.4 </tspan>
<tspan x="10" y="1098">    │ │ ├── babel-plugin-member-expression-literals@1.0.1 </tspan>
<tspan x="10" y="1114">    │ │ ├── babel-plugin-property-literals@1.0.1 </tspan>
<tspan x="10" y="1130">    │ │ ├── babel-plugin-proto-to-assign@1.0.4 </tspan>
<tspan x="10" y="1146">    │ │ ├── babel-plugin-react-constant-elements@1.0.3 </tspan>
<tspan x="10" y="1162">    │ │ ├── babel-plugin-react-display-name@1.0.3 </tspan>
<tspan x="10" y="1178">    │ │ ├── babel-plugin-remove-console@1.0.1 </tspan>
<tspan x="10" y="1194">    │ │ ├── babel-plugin-remove-debugger@1.0.1 </tspan>
<tspan x="10" y="1210">    │ │ ├── babel-plugin-runtime@1.0.7 </tspan>
<tspan x="10" y="1226">    │ │ ├─┬ babel-plugin-undeclared-variables-check@1.0.2 </tspan>
<tspan x="10" y="1242">    │ │ │ └── leven@1.0.2 </tspan>
<tspan x="10" y="1258">    │ │ ├── babel-plugin-undefined-to-void@1.1.6 </tspan>
<tspan x="10" y="1274">    │ │ ├── babylon@5.8.38 </tspan>
<tspan x="10" y="1290">    │ │ ├── bluebird@2.11.0 </tspan>
<tspan x="10" y="1306">    │ │ ├─┬ chalk@1.1.3 </tspan>
<tspan x="10" y="1322">    │ │ │ ├── ansi-styles@2.2.1 </tspan>
<tspan x="10" y="1338">    │ │ │ ├── escape-string-regexp@1.0.5 </tspan>
<tspan x="10" y="1354">    │ │ │ ├─┬ has-ansi@2.0.0 </tspan>
<tspan x="10" y="1370">    │ │ │ │ └── ansi-regex@2.1.1 </tspan>
<tspan x="10" y="1386">    │ │ │ ├── strip-ansi@3.0.1 </tspan>
<tspan x="10" y="1402">    │ │ │ └── supports-color@2.0.0 </tspan>
<tspan x="10" y="1418">    │ │ ├── convert-source-map@1.5.0 </tspan>
<tspan x="10" y="1434">    │ │ ├── core-js@1.2.7 </tspan>
<tspan x="10" y="1450">    │ │ ├─┬ detect-indent@3.0.1 </tspan>
<tspan x="10" y="1466">    │ │ │ ├── get-stdin@4.0.1 </tspan>
<tspan x="10" y="1482">    │ │ │ └── minimist@1.2.0 </tspan>
<tspan x="10" y="1498">    │ │ ├── esutils@2.0.2 </tspan>
<tspan x="10" y="1514">    │ │ ├── fs-readdir-recursive@0.1.2 </tspan>
<tspan x="10" y="1530">    │ │ ├── globals@6.4.1 </tspan>
<tspan x="10" y="1546">    │ │ ├─┬ home-or-tmp@1.0.0 </tspan>
<tspan x="10" y="1562">    │ │ │ └── user-home@1.1.1 </tspan>
<tspan x="10" y="1578">    │ │ ├─┬ is-integer@1.0.6 </tspan>
<tspan x="10" y="1594">    │ │ │ └─┬ is-finite@1.0.2 </tspan>
<tspan x="10" y="1610">    │ │ │   └── number-is-nan@1.0.1 </tspan>
<tspan x="10" y="1626">    │ │ ├── js-tokens@1.0.1 </tspan>
<tspan x="10" y="1642">    │ │ ├── json5@0.4.0 </tspan>
<tspan x="10" y="1658">    │ │ ├── lodash@3.10.1 </tspan>
<tspan x="10" y="1674">    │ │ ├── minimatch@2.0.10 </tspan>
<tspan x="10" y="1690">    │ │ ├─┬ output-file-sync@1.1.2 </tspan>
<tspan x="10" y="1706">    │ │ │ └── graceful-fs@4.1.11 </tspan>
<tspan x="10" y="1722">    │ │ ├── path-exists@1.0.0 </tspan>
<tspan x="10" y="1738">    │ │ ├── private@0.1.7 </tspan>
<tspan x="10" y="1754">    │ │ ├─┬ regenerator@0.8.40 </tspan>
<tspan x="10" y="1770">    │ │ │ ├─┬ commoner@0.10.8 </tspan>
<tspan x="10" y="1786">    │ │ │ │ ├─┬ commander@2.9.0 </tspan>
<tspan x="10" y="1802">    │ │ │ │ │ └── graceful-readlink@1.0.1 </tspan>
<tspan x="10" y="1818">    │ │ │ │ ├─┬ detective@4.5.0 </tspan>
<tspan x="10" y="1834">    │ │ │ │ │ ├── acorn@4.0.11 </tspan>
<tspan x="10" y="1850">    │ │ │ │ │ └── defined@1.0.0 </tspan>
<tspan x="10" y="1866">    │ │ │ │ ├── glob@5.0.15 </tspan>
<tspan x="10" y="1882">    │ │ │ │ ├── iconv-lite@0.4.15 </tspan>
<tspan x="10" y="1898">    │ │ │ │ ├── q@1.5.0 </tspan>
<tspan x="10" y="1914">    │ │ │ │ └─┬ recast@0.11.23 </tspan>
<tspan x="10" y="1930">    │ │ │ │   ├── ast-types@0.9.6 </tspan>
<tspan x="10" y="1946">    │ │ │ │   └── esprima@3.1.3 </tspan>
<tspan x="10" y="1962">    │ │ │ ├─┬ defs@1.1.1 </tspan>
<tspan x="10" y="1978">    │ │ │ │ ├─┬ alter@0.2.0 </tspan>
<tspan x="10" y="1994">    │ │ │ │ │ └── stable@0.1.6 </tspan>
<tspan x="10" y="2010">    │ │ │ │ ├── ast-traverse@0.1.1 </tspan>
<tspan x="10" y="2026">    │ │ │ │ ├── breakable@1.0.0 </tspan>
<tspan x="10" y="2042">    │ │ │ │ ├── simple-fmt@0.1.0 </tspan>
<tspan x="10" y="2058">    │ │ │ │ ├── simple-is@0.2.0 </tspan>
<tspan x="10" y="2074">    │ │ │ │ ├── stringmap@0.2.2 </tspan>
<tspan x="10" y="2090">    │ │ │ │ ├── stringset@0.2.1 </tspan>
<tspan x="10" y="2106">    │ │ │ │ ├── tryor@0.1.2 </tspan>
<tspan x="10" y="2122">    │ │ │ │ └─┬ yargs@3.27.0 </tspan>
<tspan x="10" y="2138">    │ │ │ │   ├── camelcase@1.2.1 </tspan>
<tspan x="10" y="2154">    │ │ │ │   ├─┬ cliui@2.1.0 </tspan>
<tspan x="10" y="2170">    │ │ │ │   │ ├─┬ center-align@0.1.3 </tspan>
<tspan x="10" y="2186">    │ │ │ │   │ │ ├─┬ align-text@0.1.4 </tspan>
<tspan x="10" y="2202">    │ │ │ │   │ │ │ ├─┬ kind-of@3.1.0 </tspan>
<tspan x="10" y="2218">    │ │ │ │   │ │ │ │ └── is-buffer@1.1.5 </tspan>
<tspan x="10" y="2234">    │ │ │ │   │ │ │ ├── longest@1.0.1 </tspan>
<tspan x="10" y="2250">    │ │ │ │   │ │ │ └── repeat-string@1.6.1 </tspan>
<tspan x="10" y="2266">    │ │ │ │   │ │ └── lazy-cache@1.0.4 </tspan>
<tspan x="10" y="2282">    │ │ │ │   │ ├── right-align@0.1.3 </tspan>
<tspan x="10" y="2298">    │ │ │ │   │ └── wordwrap@0.0.2 </tspan>
<tspan x="10" y="2314">    │ │ │ │   ├── decamelize@1.2.0 </tspan>
<tspan x="10" y="2330">    │ │ │ │   ├─┬ os-locale@1.4.0 </tspan>
<tspan x="10" y="2346">    │ │ │ │   │ └─┬ lcid@1.0.0 </tspan>
<tspan x="10" y="2362">    │ │ │ │   │   └── invert-kv@1.0.0 </tspan>
<tspan x="10" y="2378">    │ │ │ │   ├── window-size@0.1.4 </tspan>
<tspan x="10" y="2394">    │ │ │ │   └── y18n@3.2.1 </tspan>
<tspan x="10" y="2410">    │ │ │ ├── esprima-fb@15001.1001.0-dev-harmony-fb </tspan>
<tspan x="10" y="2426">    │ │ │ ├─┬ recast@0.10.33 </tspan>
<tspan x="10" y="2442">    │ │ │ │ └── ast-types@0.8.12 </tspan>
<tspan x="10" y="2458">    │ │ │ └── through@2.3.8 </tspan>
<tspan x="10" y="2474">    │ │ ├─┬ regexpu@1.3.0 </tspan>
<tspan x="10" y="2490">    │ │ │ ├── esprima@2.7.3 </tspan>
<tspan x="10" y="2506">    │ │ │ ├── regenerate@1.3.2 </tspan>
<tspan x="10" y="2522">    │ │ │ ├── regjsgen@0.2.0 </tspan>
<tspan x="10" y="2538">    │ │ │ └─┬ regjsparser@0.1.5 </tspan>
<tspan x="10" y="2554">    │ │ │   └── jsesc@0.5.0 </tspan>
<tspan x="10" y="2570">    │ │ ├── repeating@1.1.3 </tspan>
<tspan x="10" y="2586">    │ │ ├── shebang-regex@1.0.0 </tspan>
<tspan x="10" y="2602">    │ │ ├── slash@1.0.0 </tspan>
<tspan x="10" y="2618">    │ │ ├── source-map@0.5.6 </tspan>
<tspan x="10" y="2634">    │ │ ├─┬ source-map-support@0.2.10 </tspan>
<tspan x="10" y="2650">    │ │ │ └─┬ source-map@0.1.32 </tspan>
<tspan x="10" y="2666">    │ │ │   └── amdefine@1.0.1 </tspan>
<tspan x="10" y="2682">    │ │ ├── to-fast-properties@1.0.2 </tspan>
<tspan x="10" y="2698">    │ │ ├── trim-right@1.0.1 </tspan>
<tspan x="10" y="2714">    │ │ └── try-resolve@1.0.1 </tspan>
<tspan x="10" y="2730">    │ ├── clone@0.2.0 </tspan>
<tspan x="10" y="2746">    │ └─┬ json-stable-stringify@1.0.1 </tspan>
<tspan x="10" y="2762">    │   └── jsonify@0.0.0 </tspan>
<tspan x="10" y="2778">    ├── clone@2.1.1 </tspan>
<tspan x="10" y="2794">    ├─┬ ember-cli-version-checker@1.2.0 </tspan>
<tspan x="10" y="2810">    │ └── semver@5.3.0 </tspan>
<tspan x="10" y="2826">    └─┬ resolve@1.3.2 </tspan>
<tspan x="10" y="2842">      └── path-parse@1.0.5</tspan>
</text>
</svg>
